<svg width="52" height="23" viewBox="0 0 52 23" fill="none" xmlns="http://www.w3.org/2000/svg">
<path d="M0.444625 0.344H8.86063C10.034 0.344 11.1433 0.450666 12.1886 0.664C13.234 0.877333 14.1406 1.25067 14.9086 1.784C15.698 2.296 16.3166 3 16.7646 3.896C17.234 4.77067 17.4686 5.88 17.4686 7.224C17.4686 8.54667 17.2553 9.656 16.8286 10.552C16.402 11.448 15.8153 12.1627 15.0686 12.696C14.322 13.2293 13.4366 13.6133 12.4126 13.848C11.3886 14.0613 10.2793 14.168 9.08463 14.168H5.43663V23H0.444625V0.344ZM5.43663 9.944H8.76463C9.21263 9.944 9.63929 9.90133 10.0446 9.816C10.4713 9.73067 10.8446 9.592 11.1646 9.4C11.506 9.18667 11.7726 8.90933 11.9646 8.568C12.178 8.20533 12.2846 7.75733 12.2846 7.224C12.2846 6.648 12.146 6.18933 11.8686 5.848C11.6126 5.48533 11.2713 5.208 10.8446 5.016C10.4393 4.824 9.98063 4.70667 9.46863 4.664C8.95663 4.6 8.46596 4.568 7.99663 4.568H5.43663V9.944ZM20.5369 0.344H25.5289V23H20.5369V0.344ZM30.0696 0.344H36.8536L46.4856 16.088H46.5496V0.344H51.5416V23H45.0136L35.1256 6.872H35.0616V23H30.0696V0.344Z" fill="#FF1F23"/>
</svg>
